<?xml version="1.0" standalone="no"?>
<!DOCTYPE svg PUBLIC "-//W3C//DTD SVG 20010904//EN"
 "http://www.w3.org/TR/2001/REC-SVG-20010904/DTD/svg10.dtd">
<svg version="1.0" xmlns="http://www.w3.org/2000/svg"
 width="1898.000000pt" height="382.000000pt" viewBox="0 0 1898.000000 382.000000"
 preserveAspectRatio="xMidYMid meet">
<metadata>
Created by potrace 1.15, written by Peter Selinger 2001-2017
</metadata>
<g transform="translate(0.000000,382.000000) scale(0.100000,-0.100000)"
fill="#000000" stroke="none">
<path d="M785 3340 c-72 -28 -119 -71 -154 -142 l-31 -61 0 -1297 0 -1297 31
-61 c35 -72 83 -114 157 -142 51 -19 81 -20 1114 -20 1214 0 1132 -6 1224 85
84 83 84 83 84 557 0 224 -3 408 -8 408 -4 0 -67 -60 -139 -132 l-133 -133 -2
-250 -3 -250 -1020 0 -1020 0 0 1235 0 1235 233 0 233 0 19 -55 c22 -64 70
-114 127 -129 24 -7 179 -11 416 -11 416 0 421 1 485 63 20 20 39 52 48 85
l16 52 231 -2 232 -3 3 -212 c1 -117 6 -213 11 -213 4 0 40 30 79 68 67 64
105 90 165 111 l27 11 0 143 c0 179 -12 221 -84 292 -92 91 -10 85 -1227 84
-1026 0 -1066 -1 -1114 -19z"/>
<path d="M3720 3205 c0 -3 30 -55 67 -117 37 -62 244 -416 460 -787 l393 -675
0 -638 0 -638 193 2 192 3 5 645 5 645 99 170 c465 799 806 1387 806 1390 0 3
-89 5 -199 5 l-198 0 -343 -602 c-189 -332 -350 -611 -359 -620 -15 -16 -42
28 -369 602 l-354 620 -199 0 c-109 0 -199 -2 -199 -5z"/>
<path d="M10600 1780 l0 -1430 185 0 185 0 2 1022 3 1021 514 -729 c283 -401
558 -790 611 -864 53 -74 152 -215 220 -312 l125 -178 58 0 57 0 0 1450 0
1450 -182 -2 -183 -3 -3 -972 c-1 -594 -6 -973 -11 -973 -9 0 -200 261 -1034
1409 -115 157 -251 343 -303 414 l-94 127 -75 0 -75 0 0 -1430z"/>
<path d="M15580 2951 l-175 -68 -5 -219 -5 -219 -117 -3 -118 -3 0 -144 0
-144 118 -3 117 -3 5 -665 c6 -723 3 -686 64 -821 65 -145 218 -283 357 -322
86 -24 153 -27 324 -17 138 8 327 39 343 55 6 6 -44 304 -52 313 -4 3 -22 -2
-41 -11 -83 -39 -231 -61 -321 -47 -185 30 -258 112 -294 335 -8 48 -10 245
-8 625 l3 555 283 3 282 2 0 145 0 145 -285 0 -285 0 0 290 c0 160 -3 290 -7
289 -5 0 -87 -31 -183 -68z"/>
<path d="M3215 2611 c-16 -10 -274 -264 -573 -563 l-543 -544 -43 -159 c-24
-88 -58 -216 -76 -285 -17 -69 -36 -135 -41 -148 -5 -13 -7 -27 -4 -32 6 -9
10 -8 250 55 99 26 223 59 275 72 l95 25 558 556 c307 307 565 569 573 584 19
36 18 83 -3 116 -29 47 -286 303 -325 323 -47 24 -105 24 -143 0z m37 -318
c53 -58 76 -30 -419 -525 -252 -252 -462 -458 -468 -458 -6 0 -33 23 -60 50
l-50 50 455 455 c402 402 458 455 486 455 20 0 39 -9 56 -27z m-1005 -1258
c-2 -5 -17 -13 -33 -17 -93 -22 -121 -29 -136 -34 -14 -4 -18 0 -18 18 0 25
34 150 45 169 9 13 147 -120 142 -136z"/>
<path d="M1130 2435 l0 -105 749 0 748 0 27 26 c24 24 26 34 26 105 l0 79
-775 0 -775 0 0 -105z"/>
<path d="M6915 2474 c-11 -2 -51 -12 -90 -20 -174 -39 -289 -100 -410 -219
-94 -91 -151 -172 -205 -289 -150 -321 -147 -802 5 -1125 121 -254 308 -414
565 -482 70 -19 112 -23 240 -23 172 -1 251 11 375 56 273 100 463 321 548
638 35 131 42 197 41 405 -1 191 -3 221 -28 328 -52 223 -121 355 -261 493
-79 78 -107 98 -196 142 -142 70 -238 93 -419 97 -80 2 -154 2 -165 -1z m222
-304 c159 -21 287 -108 360 -247 80 -148 118 -409 95 -651 -15 -162 -33 -235
-88 -349 -98 -204 -245 -303 -454 -303 -176 0 -280 39 -377 143 -121 130 -183
342 -183 628 0 387 136 664 370 753 89 33 165 40 277 26z"/>
<path d="M13715 2456 c-131 -31 -190 -55 -278 -109 -166 -104 -318 -303 -387
-506 -87 -260 -85 -653 4 -911 107 -306 313 -507 602 -587 89 -25 115 -28 259
-27 211 0 316 23 476 106 90 46 218 160 283 252 134 189 198 423 198 726 0
443 -141 764 -411 937 -143 92 -288 133 -496 139 -133 3 -161 1 -250 -20z
m311 -287 c303 -42 455 -295 455 -759 0 -257 -43 -430 -143 -581 -52 -77 -106
-123 -197 -167 -66 -32 -84 -36 -177 -40 -185 -8 -297 29 -399 132 -89 90
-150 231 -175 406 -17 118 -14 391 5 485 50 242 156 406 310 480 103 50 192
62 321 44z"/>
<path d="M17548 2470 c-195 -35 -373 -128 -512 -265 -216 -215 -317 -481 -317
-838 1 -344 97 -587 317 -798 119 -113 241 -182 402 -227 87 -24 114 -27 257
-26 109 0 192 5 260 18 186 33 407 120 468 184 l26 27 -69 119 c-38 65 -73
123 -78 128 -6 6 -31 -5 -70 -31 -247 -169 -597 -185 -829 -39 -170 107 -276
307 -290 545 l-6 93 754 2 754 3 13 55 c9 38 11 102 8 205 -5 176 -24 263 -86
388 -144 292 -424 452 -810 462 -80 2 -166 0 -192 -5z m368 -331 c122 -38 236
-135 295 -251 32 -64 59 -163 59 -220 l0 -38 -576 0 -577 0 7 43 c40 260 257
465 521 491 72 7 209 -6 271 -25z"/>
<path d="M8360 1741 c0 -412 4 -740 10 -800 34 -324 205 -538 485 -607 109
-27 298 -25 400 4 149 43 359 175 404 253 9 16 19 29 24 29 4 0 7 -61 7 -135
l0 -135 185 0 185 0 0 1045 0 1045 -185 0 -185 0 0 -735 0 -736 -26 -51 c-51
-101 -182 -211 -306 -256 -129 -48 -315 -46 -413 4 -98 50 -168 147 -196 269
-8 34 -13 278 -16 778 l-4 727 -185 0 -184 0 0 -699z"/>
<path d="M1130 1975 l0 -105 519 0 519 0 96 96 c53 53 96 100 96 105 0 5 -256
9 -615 9 l-615 0 0 -105z"/>
<path d="M1130 1515 l0 -105 362 2 362 3 18 68 c10 37 25 83 32 102 l15 35
-395 0 -394 0 0 -105z"/>
<path d="M1130 1055 l0 -105 300 0 299 0 16 58 c9 31 21 70 26 86 22 71 45 66
-316 66 l-325 0 0 -105z"/>
</g>
</svg>
